<svg width="1200" height="760" viewBox="0 0 1200 760" fill="none" xmlns="http://www.w3.org/2000/svg">
  <rect width="1200" height="760" fill="#EAE2D4"/>
  <rect x="228" y="88" width="744" height="584" rx="32" fill="#111614"/>
  <rect x="260" y="120" width="680" height="520" rx="24" fill="#F8F2E8"/>
  <text x="314" y="218" fill="#111614" font-family="Segoe UI, Arial" font-size="72" font-weight="700">Takt</text>
  <text x="318" y="260" fill="#5F6862" font-family="Segoe UI, Arial" font-size="24">Clean keyboard sound for Windows</text>
  <text x="318" y="340" fill="#2B7752" font-family="Segoe UI, Arial" font-size="25" font-weight="700">Status: running</text>
  <text x="318" y="418" fill="#111614" font-family="Segoe UI, Arial" font-size="24" font-weight="700">Sound</text>
  <rect x="318" y="444" width="564" height="48" rx="8" fill="#FFFFFF" stroke="#CFC6B8"/>
  <text x="342" y="476" fill="#111614" font-family="Segoe UI, Arial" font-size="21">Oil King - deep linear</text>
  <text x="318" y="552" fill="#111614" font-family="Segoe UI, Arial" font-size="24" font-weight="700">Volume: 65%</text>
  <rect x="500" y="562" width="382" height="10" rx="5" fill="#D6CCBD"/>
  <rect x="500" y="562" width="248" height="10" rx="5" fill="#D88A58"/>
  <circle cx="748" cy="567" r="18" fill="#D88A58"/>
  <rect x="318" y="594" width="218" height="44" rx="8" fill="#FFFFFF" stroke="#CFC6B8"/>
  <text x="354" y="624" fill="#111614" font-family="Segoe UI, Arial" font-size="20">Start with Windows</text>
  <rect x="626" y="590" width="96" height="48" rx="8" fill="#111614"/>
  <text x="650" y="622" fill="#F8F2E8" font-family="Segoe UI, Arial" font-size="20">Apply</text>
  <rect x="736" y="590" width="112" height="48" rx="8" fill="#111614"/>
  <text x="762" y="622" fill="#F8F2E8" font-family="Segoe UI, Arial" font-size="20">Restart</text>
  <rect x="862" y="590" width="78" height="48" rx="8" fill="#111614"/>
  <text x="882" y="622" fill="#F8F2E8" font-family="Segoe UI, Arial" font-size="20">Stop</text>
</svg>
